<svg version="1" xmlns="http://www.w3.org/2000/svg" width="346.667" height="346.667" viewBox="0 0 260.000000 260.000000"><path d="M52.5 1.6C27 7 6.6 27.7 1.5 53.5.1 60.5 0 70.9.2 134c.4 81.3-.1 75.6 8.1 91.4 6 11.6 15.8 21.1 27.9 27.1 15.8 7.7 14.1 7.6 97.2 7.3l73.1-.3 8-2.8c20.5-7.3 34.9-21.7 42.2-42.2l2.8-8 .3-73.1c.3-83.1.4-81.4-7.3-97.2-6-12.1-15.5-21.9-27.1-27.9C209.5.1 215.5.6 133 .3 71.2.2 58.4.4 52.5 1.6zm33.6 32.6c0 .2 4.6 29.9 10.2 66.1l10.2 65.8 39.9-66.1 40-66h22.8c12.5 0 22.8.2 22.8.4 0 .3-26.7 43.1-59.4 95.3l-59.3 94.8-20 .3-19.9.2-14.7-94.2C50.6 78.9 44 35.9 44 35.2c0-.9 4.9-1.2 21-1.2 11.6 0 21 .1 21.1.2z"/></svg>